<svg class="svg-icon" style="width: 1.0009765625em; height: 1em;vertical-align: middle;fill: currentColor;overflow: hidden;" viewBox="0 0 1025 1024" version="1.1" xmlns="http://www.w3.org/2000/svg"><path d="M751.786604 599.145589c-31.446734-84.765684-118.337111-177.203233-136.789401-195.050655l0.002552-0.007657c-0.220764-0.210555-0.449184-0.430043-0.687814-0.638046-2.151491-1.977943-4.544163-4.059249-7.116765-6.220948-1.967734-2.154043-3.75171-3.952057-5.496128-5.715616 5.63905 4.72154 12.777509 7.676969 20.670137 7.676969 12.681802 0 23.554105-7.410266 28.930281-18.103917 18.865743 3.842313 68.28368 14.705684 74.781541 42.065095 1.536415 6.486375 7.267344 10.846782 13.587827 10.846782 1.088506 0 2.182117-0.125057 3.282109-0.399417 7.516182-1.818431 12.142015-9.454565 10.336345-17.048588-8.128706-34.227338-45.608802-50.085333-74.040131-57.946059 13.474255-12.771128 25.5346-28.927728 26.970203-40.21859 0.962173-7.527666-4.21876-13.987244-11.625198-15.248023-7.439616-1.231429-14.565314 4.092427-16.117041 11.521834-1.53131 7.334977-19.062262 25.501422-29.362876 32.912964-5.876403-8.570234-15.64744-14.206732-26.741783-14.206732-9.777417 0-18.444633 4.443352-24.414191 11.339353 3.402061-5.128614 7.047856-8.687634 8.905846-10.276368 1.330964-1.138274 3.786165-3.07921 7.013401-5.650535 35.527676-28.290959 69.374739-51.987986 76.375379-73.849993 1.940936-6.046124 3.299974-9.953517 4.198343-12.517186 1.382008-3.952057 5.44636-15.581083-5.022698-21.001921-2.085134-2.257407-5.864919-4.974206-11.916147-4.974206-4.699847 0-9.480087 1.630846-15.546628 3.696838-10.056881 3.431411-24.053057 7.365603-33.089064 3.499044-7.60806-3.255311-14.857539-8.470698-22.534508-13.991072-14.282021-10.262331-30.470524-21.899014-53.09691-23.538792-17.999277-1.30289-32.609254 4.888708-46.57608 10.846782-12.443173 5.308543-24.192151 10.319756-40.002931 10.319756l-0.061252 0c-15.380736-0.324127-32.139652-2.581534-46.924453-4.591379-13.919611-1.884788-25.936569-3.510529-35.638696-3.510529-4.059249 0-7.52001 0.290949-9.749343 0.80011-1.481543-1.144654-3.714704-3.940572-6.657372-8.3265-2.286757-3.413546-5.747518-8.57151-12.868111-8.57151-4.029898 0-7.906666 1.952421-10.341449 5.196246-4.250662 5.683714-3.97375 6.658648 3.040927 31.819353l0.997904 3.580714c0.201623 0.814147 0.445356 2.277824 0.786073 4.235349 2.498588 14.163345 8.348194 41.834122 24.059438 59.026909 2.150215 2.785709 4.578618 5.818979 7.200987 9.065357 12.001645 14.930276 27.483192 34.247756 35.153781 54.836223-3.79765 0.786073-7.558293 1.410082-11.371255 2.276548-6.931731 1.570869-11.285757 8.531951-9.727649 15.533867 1.558108 6.999364 8.43752 11.359771 15.362871 9.823356 3.499044-0.792453 6.976395-1.374351 10.469058-2.092791-0.193966 6.79519-1.675509 13.592931-4.838941 20.28731-1.99836 2.890348-3.954609 5.161792-5.80239 6.746698-65.065376 55.656751-111.327538 125.150166-137.507841 195.724431-25.928912 69.839236-27.749896 98.449218-27.393866 121.768522 0.487467 31.847427 1.798014 116.438286 150.968058 118.675275 133.073421 1.989427 149.942081 1.453469 232.687711 0.516817 148.900789-1.63595 150.18071-87.044784 150.664349-119.202301C779.519911 697.575666 777.683614 668.977169 751.786604 599.145589L751.786604 599.145589zM400.4619 285.092979c-2.498588-3.111112-4.828732-6.007841-7.559569-9.474983-10.446089-11.474619-15.606605-37.099821-17.842318-49.518748 1.047671-0.079118 2.095343-0.239905 3.126425-0.470878 0.914958-0.208003 2.674689-0.463221 5.857262-0.463221 7.985783 0 19.757732 1.593839 32.217494 3.277004 15.458578 2.100447 32.983149 4.465046 49.821182 4.819799l1.795461 0.011485c19.766664 0 35.186959-6.576978 48.7901-12.371711 12.325772-5.266431 22.67743-9.727649 34.741603-8.870115 15.435608 1.11658 27.382381 9.703403 40.024624 18.794282 8.464318 6.084406 17.217033 12.371711 27.395142 16.730842 14.701855 6.312827 34.215854 2.895453 47.198813-1.393492-0.08167 0.247562-0.160788 0.492571-0.242457 0.746514-3.687906 11.525663-26.508258 28.546177-67.825563 61.451484-3.553916 2.8342-6.255403 4.988243-7.710148 6.233709-4.278736 3.654727-14.761832 11.760463-20.903662 27.452566-37.617915-5.969558-81.672437-5.304714-127.95374 1.91031C432.639835 317.495506 413.968058 301.878693 400.4619 285.092979L400.4619 285.092979zM595.342835 384.640912c-2.286757-2.817611-3.636862-5.344273-4.310639-9.079394 0.089326 0.025522 0.179929 0.048491 0.269255 0.075289C592.248312 378.848731 593.529508 381.919008 595.342835 384.640912L595.342835 384.640912zM753.459561 720.496829c-0.484915 32.240463-1.382008 89.94917-125.228008 91.320968-72.691302 0.814147-81.937864 1.740589-232.034352-0.524474-124.227552-1.849057-125.138681-58.915889-125.627424-90.796495-0.322851-20.828373 1.408806-46.65137 25.754088-112.229735 24.615814-66.372095 68.370455-132.264379 130.041427-185.020572 3.793821-3.243826 7.484279-7.523838 10.976943-12.731569 0.319023-0.474706 0.612524-0.973658 0.86519-1.490475 6.227329-12.652452 8.484735-25.168362 8.032999-37.286131 42.875414-6.525934 84.057453-7.179293 118.593606-1.837572 0.017865 0.996628-0.126333 1.898825-0.061252 2.912042 1.237809 19.40553 9.215936 27.447462 17.659837 35.950062 1.943488 1.970286 4.079666 4.11412 6.368975 6.65482 0.409626 0.451737 0.843497 0.869019 1.306718 1.255674 2.60578 2.182117 5.011213 4.272356 6.939388 6.035915 10.175557 9.813147 100.314864 103.75138 130.660331 185.556531C752.034166 673.850564 753.764547 699.672285 753.459561 720.496829L753.459561 720.496829zM518.344723 596.409648l0-72.252326c16.254859 3.367607 30.899291 11.112209 42.69038 24.224054l16.31994-20.121418c-14.913687-15.693379-34.44555-26.193063-59.01032-29.452202l0-30.858456-14.200351 0 0 0.276912-12.452105 0 0 29.347563c-39.168366 2.97457-66.435899 27.049321-66.435899 61.032926 0 40.581 33.143936 51.797848 66.435899 61.036754l0 80.166649c-25.787266-2.97457-44.566235-16.165533-56.971125-31.014139l-16.316112 21.115494c16.316112 18.808319 40.318125 32.664126 73.287237 34.63824L491.692266 754.170344l21.454934 0 0-0.230973 5.197523 0L518.344723 723.786595c46.466336-5.41063 63.907961-34.975128 63.907961-63.564692C582.252684 619.22362 550.36187 605.84252 518.344723 596.409648L518.344723 596.409648zM491.692266 589.618287c-22.196343-6.597395-38.363152-14.515546-38.363152-32.66285 0-19.133723 15.190599-32.990805 38.363152-34.63824L491.692266 589.618287 491.692266 589.618287zM518.344723 699.197579l0-72.587939c20.37536 6.726281 35.837766 15.815884 35.837766 35.588928C554.179937 677.073972 545.152863 694.395645 518.344723 699.197579L518.344723 699.197579zM518.344723 699.197579M512.006374 0C229.23333 0 0 229.238434 0 512.017859 0 794.776866 229.23333 1023.999987 512.016583 1023.999987c282.764111 0 512.006374-229.223121 512.006374-511.982128C1024.012748 229.238434 794.780694 0 512.006374 0zM512.006374 999.040905c-268.981042 0-487.033255-218.052212-487.033255-487.017941 0-268.981042 218.052212-487.033255 487.033255-487.033255s487.033255 218.052212 487.033255 487.033255C999.039629 780.988692 780.997625 999.040905 512.006374 999.040905z"  /></svg>